# xmcd
#
# Track frame offsets:
# 165
# 13458
# 27740
# 43003
# 56360
# 67545
# 79781
# 92533
# 107277
# 123921
# 142028
# 158518
# 173566
# 187804
# 200680
# 213616
# 229295
#
# Disc length: 3101 seconds
#
#
# Revision: 14
# Processed by: cddbd v1.5.2PL0 Copyright (c) Steve Scherf et al.
# Submitted via: FreeRIP 2.951 
#
DISCID=dd0c1b11
DTITLE=Tião Carreiro - Saudades de ... - Saudades De Tião Carreiro
DYEAR=1996
DGENRE=Sertanejo
TTITLE0=Rei do Gado
TTITLE1=Amargurado
TTITLE2=A Vaca Já Foi Pro Brejo
TTITLE3=Pagode em Brasilia
TTITLE4=Empreitada Perigosa
TTITLE5=Rancho dos Ipês
TTITLE6=Pretinho Aleijado
TTITLE7=Boi Soberano
TTITLE8=A Mão do Tempo
TTITLE9=A Coisa Tá Feia
TTITLE10=Rancho do Vale
TTITLE11=Pai João
TTITLE12=Oi Paixão
TTITLE13=Raízes do Amor
TTITLE14=Rei Sem Coroa
TTITLE15=Rio de Lágrimas
TTITLE16=Homenagem a Tião Carreiro
EXTD=YEAR: 1996
EXTT0=
EXTT1=
EXTT2=
EXTT3=
EXTT4=
EXTT5=
EXTT6=
EXTT7=
EXTT8=
EXTT9=
EXTT10=
EXTT11=
EXTT12=
EXTT13=
EXTT14=
EXTT15=
EXTT16=
PLAYORDER=
